# xmcd
#
# Track frame offsets:
#	150
#	16617
#	28345
#	40467
#	52840
#	66155
#	82562
#	102947
#	115995
#	130172
#	148352
#	159020
#	170697
#	182580
#
# Disc length: 2604 seconds
#
# Revision: 1
# Processed by: cddbd v1.5.1PL0 Copyright (c) Steve Scherf et al.
# Submitted via: CDex 1.50Beta5
#
DISCID=b00a2a0e
DTITLE=Various Artist - OLDIES STANDARD POPS
DYEAR=1900
DGENRE=POPS
TTITLE0=アンチェインドメロデー
TTITLE1=ビーマィベイビー
TTITLE2=夢のカリフォルニア
TTITLE3=ドクオブベイ
TTITLE4=バスストップ
TTITLE5=テルミー
TTITLE6=朝日のあたる家
TTITLE7=ストップインザネイムオブラブ
TTITLE8=デイドリームビリーバ
TTITLE9=青い影
TTITLE10=ロコモーション
TTITLE11=悲しき雨音
TTITLE12=オンリーユ
TTITLE13=ひき潮
EXTD=
EXTT0=
EXTT1=
EXTT2=
EXTT3=
EXTT4=
EXTT5=
EXTT6=
EXTT7=
EXTT8=
EXTT9=
EXTT10=
EXTT11=
EXTT12=
EXTT13=
PLAYORDER=
